<svg width="42" height="42" viewBox="0 0 42 42" fill="none" xmlns="http://www.w3.org/2000/svg">
<rect x="-0.00390625" y="0.513672" width="41.383" height="41.383" rx="8" fill="#D7DCBE"/>
<path d="M15.6667 16.9997H26.3333M15.6667 22.333H23.6667M21.472 32.5277L21 32.9997L17 28.9997H13C11.9391 28.9997 10.9217 28.5782 10.1716 27.8281C9.42143 27.078 9 26.0605 9 24.9997V14.333C9 13.2721 9.42143 12.2547 10.1716 11.5046C10.9217 10.7544 11.9391 10.333 13 10.333H29C30.0609 10.333 31.0783 10.7544 31.8284 11.5046C32.5786 12.2547 33 13.2721 33 14.333V21.6663M30.3333 34.333V26.333M30.3333 26.333L34.3333 30.333M30.3333 26.333L26.3333 30.333" stroke="#90957A" stroke-width="2" stroke-linecap="round" stroke-linejoin="round"/>
</svg>
