<svg width="42" height="42" viewBox="0 0 42 42" fill="none" xmlns="http://www.w3.org/2000/svg">
<rect x="-0.00390625" y="0.513672" width="41.383" height="41.383" rx="8" fill="#D7DCBE"/>
<path d="M9 18.3333C9 15.8187 9 14.5627 9.78133 13.7813C10.5627 13 11.8187 13 14.3333 13H27.6667C30.1813 13 31.4373 13 32.2187 13.7813C33 14.5627 33 15.8187 33 18.3333V23.6667C33 26.1813 33 27.4373 32.2187 28.2187C31.4373 29 30.1813 29 27.6667 29H14.3333C11.8187 29 10.5627 29 9.78133 28.2187C9 27.4373 9 26.1813 9 23.6667V18.3333Z" fill="#90957A" fill-opacity="0.35"/>
<path d="M20.9999 23.6663C22.4727 23.6663 23.6666 22.4724 23.6666 20.9997C23.6666 19.5269 22.4727 18.333 20.9999 18.333C19.5272 18.333 18.3333 19.5269 18.3333 20.9997C18.3333 22.4724 19.5272 23.6663 20.9999 23.6663Z" fill="#90957A"/>
<path d="M15.0001 15.667H12.3334C11.9652 15.667 11.6667 15.9655 11.6667 16.3337C11.6667 16.7018 11.9652 17.0003 12.3334 17.0003H15.0001C15.3683 17.0003 15.6667 16.7018 15.6667 16.3337C15.6667 15.9655 15.3683 15.667 15.0001 15.667Z" fill="#90957A"/>
<path d="M29.6666 25H26.9999C26.6317 25 26.3333 25.2985 26.3333 25.6667C26.3333 26.0349 26.6317 26.3333 26.9999 26.3333H29.6666C30.0348 26.3333 30.3333 26.0349 30.3333 25.6667C30.3333 25.2985 30.0348 25 29.6666 25Z" fill="#90957A"/>
</svg>
