<svg width="42" height="42" viewBox="0 0 42 42" fill="none" xmlns="http://www.w3.org/2000/svg">
<rect x="-0.00390625" y="0.513672" width="41.383" height="41.383" rx="8" fill="#D7DCBE"/>
<path fill-rule="evenodd" clip-rule="evenodd" d="M20.9241 6.66699H21.0761C24.1547 6.66699 26.5667 6.66699 28.4494 6.92033C30.3747 7.17899 31.8947 7.72033 33.0881 8.91233C34.2814 10.1057 34.8214 11.6257 35.0801 13.5523C35.3334 15.4337 35.3334 17.8457 35.3334 20.9243V21.0763C35.3334 24.155 35.3334 26.567 35.0801 28.4497C34.8214 30.375 34.2801 31.895 33.0881 33.0883C31.8947 34.2817 30.3747 34.8217 28.4481 35.0803C26.5667 35.3337 24.1547 35.3337 21.0761 35.3337H20.9241C17.8454 35.3337 15.4334 35.3337 13.5507 35.0803C11.6254 34.8217 10.1054 34.2803 8.91208 33.0883C7.71875 31.895 7.17875 30.375 6.92008 28.4483C6.66675 26.567 6.66675 24.155 6.66675 21.0763V20.9243C6.66675 17.8457 6.66675 15.4337 6.92008 13.551C7.17875 11.6257 7.72008 10.1057 8.91208 8.91233C10.1054 7.71899 11.6254 7.17899 13.5521 6.92033C15.4334 6.66699 17.8454 6.66699 20.9241 6.66699ZM13.8174 8.90166C12.1134 9.13099 11.0854 9.56833 10.3267 10.327C9.56675 11.087 9.13075 12.1137 8.90141 13.819C8.66941 15.5523 8.66675 17.8297 8.66675 21.0003C8.66675 24.171 8.66941 26.4483 8.90141 28.1817C9.13075 29.887 9.56808 30.915 10.3267 31.675C11.0867 32.4337 12.1134 32.8697 13.8187 33.099C15.5521 33.331 17.8294 33.3337 21.0001 33.3337C24.1707 33.3337 26.4481 33.331 28.1814 33.099C29.8867 32.8697 30.9147 32.4323 31.6747 31.6737C32.4334 30.9137 32.8694 29.887 33.0987 28.1817C33.3307 26.4483 33.3334 24.171 33.3334 21.0003C33.3334 17.8297 33.3307 15.5523 33.0987 13.819C32.8694 12.1137 32.4321 11.0857 31.6734 10.3257C30.9134 9.56699 29.8867 9.13099 28.1814 8.90166C26.4481 8.66966 24.1707 8.66699 21.0001 8.66699C17.8294 8.66699 15.5507 8.66966 13.8174 8.90166ZM26.3334 14.0003C25.8914 14.0003 25.4675 14.1759 25.1549 14.4885C24.8423 14.801 24.6667 15.225 24.6667 15.667C24.6667 16.109 24.8423 16.5329 25.1549 16.8455C25.4675 17.1581 25.8914 17.3337 26.3334 17.3337C26.7754 17.3337 27.1994 17.1581 27.5119 16.8455C27.8245 16.5329 28.0001 16.109 28.0001 15.667C28.0001 15.225 27.8245 14.801 27.5119 14.4885C27.1994 14.1759 26.7754 14.0003 26.3334 14.0003ZM22.6667 15.667C22.6667 14.6945 23.0531 13.7619 23.7407 13.0743C24.4283 12.3866 25.361 12.0003 26.3334 12.0003C27.3059 12.0003 28.2385 12.3866 28.9261 13.0743C29.6138 13.7619 30.0001 14.6945 30.0001 15.667C30.0001 16.6395 29.6138 17.5721 28.9261 18.2597C28.2385 18.9473 27.3059 19.3337 26.3334 19.3337C25.361 19.3337 24.4283 18.9473 23.7407 18.2597C23.0531 17.5721 22.6667 16.6395 22.6667 15.667ZM16.3387 22.5697C15.9647 22.1725 15.4487 21.9394 14.9035 21.9212C14.3582 21.903 13.8279 22.1011 13.4281 22.4723L12.3481 23.4763C12.1536 23.6568 11.8953 23.7527 11.6302 23.7428C11.365 23.733 11.1146 23.6182 10.9341 23.4237C10.7536 23.2292 10.6577 22.9709 10.6676 22.7057C10.6774 22.4406 10.7923 22.1902 10.9867 22.0097L12.0667 21.007C12.8533 20.2762 13.897 19.8861 14.97 19.9218C16.0431 19.9575 17.0585 20.4162 17.7947 21.1977L21.3241 24.9443C21.5025 25.1336 21.7442 25.2508 22.0034 25.2734C22.2625 25.296 22.5209 25.2225 22.7294 25.067C23.5042 24.489 24.4587 24.2041 25.4236 24.2629C26.3884 24.3217 27.3013 24.7205 28.0001 25.3883L31.0241 28.2777C31.2075 28.4627 31.3114 28.712 31.3138 28.9725C31.3162 29.233 31.2168 29.4842 31.0368 29.6725C30.8568 29.8609 30.6104 29.9715 30.35 29.981C30.0897 29.9904 29.8359 29.8978 29.6427 29.723L26.6187 26.835C26.2617 26.4937 25.7952 26.2899 25.3021 26.2599C24.809 26.2299 24.3213 26.3755 23.9254 26.671C23.3234 27.1201 22.5773 27.3321 21.8292 27.2667C21.081 27.2013 20.383 26.863 19.8681 26.3163L16.3387 22.5697Z" fill="#90957A"/>
</svg>
