<svg width="832" height="442" fill="none" xmlns="http://www.w3.org/2000/svg"><path d="M200.613 254.8c-.267.8-.8 1.867-1.6 3.2-.534 1.333-1.2 2.8-2 4.4-.8 1.333-1.6 2.533-2.4 3.6-.8.8-1.334 1.067-1.6.8l.4-2c.266-1.333.533-2.8.8-4.4.533-1.6.933-3.067 1.2-4.4.533-1.6.8-2.667.8-3.2 4-21.333 4-39.733 0-55.2-4-15.467-10.8-28.133-20.4-38-9.334-9.867-20.934-17.2-34.8-22-13.6-4.8-28-7.333-43.2-7.6-10.934 0-21.734.933-32.4 2.8-10.4 1.6-20 3.733-28.8 6.4-8.534 2.667-15.867 5.6-22 8.8-5.867 3.2-9.6 6.267-11.2 9.2-1.867 3.2-2.4 2.8-1.6-1.2 2.133-6.933 7.733-13.333 16.8-19.2 9.333-5.867 20.133-10.667 32.4-14.4 12.266-3.733 25.066-6.133 38.4-7.2 13.6-1.333 25.866-.667 36.8 2 7.2 1.6 14.4 3.867 21.6 6.8 7.2 2.933 14 6.533 20.4 10.8 6.666 4 12.666 8.933 18 14.8 5.6 5.6 10.266 12.133 14 19.6 7.2 14.4 10.666 29.333 10.4 44.8 0 15.2-3.334 28.8-10 40.8Zm26-2.8c-5.067 14.933-11.867 28.4-20.4 40.4-8.267 12-17.2 22.8-26.8 32.4-9.6 9.333-19.467 17.467-29.6 24.4-10.134 6.933-19.6 12.8-28.4 17.6-2.667 1.333-4.934 2.4-6.8 3.2-1.867.8-2.8.933-2.8.4-.534-.267.133-1.067 2-2.4l6.4-4.8a647.502 647.502 0 0 0 43.2-38c14.133-13.333 26.8-28.533 38-45.6 5.6-8.8 9.866-18.4 12.8-28.8 2.933-10.667 4.4-21.6 4.4-32.8 0-11.2-1.6-22.267-4.8-33.2a98.526 98.526 0 0 0-14-30.4c-8.534-12.267-18.934-22-31.2-29.2-12-7.2-24.934-12.133-38.8-14.8-13.867-2.933-28.134-3.867-42.8-2.8-14.667 1.067-28.8 3.6-42.4 7.6-2.134.533-3.467.933-4 1.2-.267.267-.534.133-.8-.4-.267-.533.133-1.067 1.2-1.6 1.066-.533 2-1.067 2.8-1.6 5.866-3.2 13.466-6.133 22.8-8.8 9.333-2.667 19.866-4.267 31.6-4.8 11.733-.533 24.266.533 37.6 3.2 13.333 2.4 26.8 7.2 40.4 14.4 14.666 8 26 18.133 34 30.4 8.266 12.267 14 24.933 17.2 38 3.2 12.8 4.533 25.333 4 37.6-.534 12-2.134 21.733-4.8 29.2Zm-174 137.2c-1.334-2.133-3.067-5.467-5.2-10-1.867-4.8-3.334-10.4-4.4-16.8-.534-3.2-.934-6.8-1.2-10.8 0-4 .133-7.733.4-11.2.266-3.733.666-6.8 1.2-9.2.533-2.4 1.333-3.6 2.4-3.6.266 0 .533.8.8 2.4.533 1.333.933 2.933 1.2 4.8.533 1.867.8 3.733.8 5.6.266 1.6.4 2.8.4 3.6a275.881 275.881 0 0 0 2.4 20.8c1.333 6.933 3.2 13.6 5.6 20 9.333-11.467 20-23.067 32-34.8 12-11.733 23.733-23.6 35.2-35.6 11.466-12.267 21.866-24.8 31.2-37.6 9.6-12.8 16.533-26 20.8-39.6 2.933-9.333 3.466-19.067 1.6-29.2-1.6-10.133-4.934-19.333-10-27.6-5.067-8-12.267-14.667-21.6-20-9.334-5.333-19.6-9.067-30.8-11.2-4.534-.8-9.067-1.467-13.601-2-4.266-.533-8.8-.8-13.6-.8.8 4 1.2 8.4 1.2 13.2.267 4.533.267 9.067 0 13.6a202.235 202.235 0 0 1-1.2 13.2c-.533 4-1.2 7.6-2 10.8-3.733 14.4-8.133 28.933-13.2 43.6-5.066 14.4-10.4 28.267-16 41.6-.533.8-1.333 2.133-2.4 4-.8 1.6-1.466 2.4-2 2.4-.533 0-.8-1.067-.8-3.2s.134-3.6.4-4.4c.267-3.2.8-7.067 1.6-11.6l2.4-14.4c1.067-4.8 2.134-9.467 3.2-14 1.067-4.8 2.134-8.8 3.2-12 .534-1.6 1.467-5.467 2.8-11.6 1.6-6.133 3.2-13.2 4.8-21.2 1.6-8 3.067-16.4 4.4-25.2 1.6-9.067 2.667-17.333 3.2-24.8h-4.8c-.533 10.4-2 21.067-4.4 32-2.4 10.933-5.333 22-8.8 33.2-3.2 10.933-6.666 22-10.4 33.2a524.413 524.413 0 0 0-9.2 33.6c-.533 2.4-1.333 6.533-2.4 12.4-.8 5.867-1.466 12.533-2 20-.533 7.2-.8 14.933-.8 23.2 0 8 .534 15.733 1.6 23.2 1.334 7.2 3.2 13.733 5.6 19.6 2.4 5.867 5.867 10 10.4 12.4Zm132.8-140.4c-5.867 13.867-14 27.2-24.4 40-10.134 12.8-21.2 25.2-33.2 37.2a631.147 631.147 0 0 1-37.2 33.6c-12.534 10.667-24 20.8-34.4 30.4-2.134 1.867-4.934 2.133-8.4.8-3.2-1.6-5.6-3.467-7.2-5.6-5.6-7.467-9.734-15.867-12.4-25.2-2.667-9.333-4.267-18.933-4.8-28.8a193.033 193.033 0 0 1 .8-30.4c1.333-10.4 3.2-20.4 5.6-30 5.333-22.133 11.333-43.467 18-64 6.933-20.8 12-40.533 15.2-59.2-14.4 1.6-27.334 4.933-38.8 10-11.2 4.8-18.667 10.667-22.4 17.6 0 .533-.134.8-.4.8-.534 0-.534-1.067 0-3.2 2.133-7.467 7.333-13.867 15.6-19.2 8.266-5.6 18.133-9.867 29.6-12.8 11.466-3.2 23.733-5.067 36.8-5.6 13.333-.533 26.266.267 38.8 2.4 13.6 2.4 25.333 7.6 35.2 15.6 10.133 7.733 18 16.933 23.6 27.6 5.866 10.4 9.2 21.6 10 33.6 1.066 12-.8 23.467-5.6 34.4Zm-86-90.8c3.2 6.933 4.4 16 3.6 27.2-.534 11.2-2 22.933-4.4 35.2-2.4 12-5.2 23.6-8.4 34.8-2.934 11.2-5.2 20.267-6.8 27.2-3.2 12.8-7.067 25.6-11.6 38.4-4.534 12.8-8.267 24-11.2 33.6-1.334 3.733-2.267 5.6-2.8 5.6-.8 0-1.2-.667-1.2-2v-4.4c.8-19.733 3.6-39.2 8.4-58.4a1958.912 1958.912 0 0 1 16.4-58.4c3.466-12 6.8-24.533 10-37.6s5.066-26.8 5.6-41.2c0-1.867.266-2.933.8-3.2.266 0 .533.4.8 1.2.266.8.533 1.467.8 2Zm47.6 166c.266.267-.267 1.333-1.6 3.2-1.334 1.867-3.067 4-5.2 6.4-1.867 2.133-3.867 4.4-6 6.8-1.867 2.133-3.2 3.6-4 4.4l-17.2 17.2c-5.6 5.6-11.467 10.4-17.6 14.4l-36 22.8c-.534.267-1.334.533-2.4.8-.8.267-1.467.267-2 0-.534-.267-.8-.667-.8-1.2l.8-1.6c.266-.533.666-1.067 1.2-1.6 4.533-3.2 9.6-7.2 15.2-12 5.866-4.8 11.866-9.733 18-14.8 4.533-3.467 9.866-7.867 16-13.2 6.4-5.333 12.533-10.4 18.4-15.2 6.133-4.8 11.333-8.8 15.6-12 4.533-3.467 7.066-4.933 7.6-4.4ZM280.967 228c-7 0-12.25-1.583-15.75-4.75-3.5-3.333-5.25-7.917-5.25-13.75s2.25-10.667 6.75-14.5c4.666-4 10.416-6 17.25-6 6.166 0 11.166 1.5 15 4.5 3.833 3 5.75 7.25 5.75 12.75 0 6.667-2.167 12-6.5 16-4.334 3.833-10.084 5.75-17.25 5.75Zm-2 134.25c-10.834 0-18.75-3.833-23.75-11.5-4.834-7.667-7.25-17.833-7.25-30.5 0-7.5.916-17.083 2.75-28.75 2-11.833 4.5-22.833 7.5-33 1.5-5.333 3.5-9 6-11s6.5-3 12-3c8.5 0 12.75 2.833 12.75 8.5 0 4.167-1.584 13.833-4.75 29-4 18.333-6 30.75-6 37.25 0 5 .666 8.833 2 11.5 1.333 2.667 3.583 4 6.75 4 3 0 6.75-2.083 11.25-6.25s10.5-10.75 18-19.75c2-2.333 4.25-3.5 6.75-3.5 2.166 0 3.833 1 5 3 1.333 2 2 4.75 2 8.25 0 6.667-1.584 11.833-4.75 15.5-16.5 20.167-31.917 30.25-46.25 30.25Zm48.523 0c-6.333 0-10.833-3.333-13.5-10-2.5-6.667-3.75-17.333-3.75-32 0-21.667 3.084-42.25 9.25-61.75 1.5-4.833 3.917-8.333 7.25-10.5 3.5-2.333 8.334-3.5 14.5-3.5 3.334 0 5.667.417 7 1.25 1.334.833 2 2.417 2 4.75 0 2.667-1.25 8.667-3.75 18-1.666 6.667-3 12.5-4 17.5s-1.833 11.167-2.5 18.5c5.5-14.333 11.667-26 18.5-35 6.834-9 13.5-15.417 20-19.25 6.667-3.833 12.75-5.75 18.25-5.75 10.834 0 16.25 5.417 16.25 16.25 0 6.5-1.833 18.25-5.5 35.25-3.166 14.5-4.75 24.083-4.75 28.75 0 6.667 2.417 10 7.25 10 3.334 0 7.25-2 11.75-6 4.667-4.167 10.834-10.833 18.5-20 2-2.333 4.25-3.5 6.75-3.5 2.167 0 3.834 1 5 3 1.334 2 2 4.75 2 8.25 0 6.667-1.583 11.833-4.75 15.5-7.166 8.833-14.916 16.083-23.25 21.75-8.166 5.667-17.5 8.5-28 8.5-8.5 0-14.916-2.417-19.25-7.25-4.333-5-6.5-12.167-6.5-21.5 0-4.667 1.167-13 3.5-25 2.167-10.5 3.25-17.75 3.25-21.75 0-2.667-.916-4-2.75-4-2.166 0-5.25 2.833-9.25 8.5-3.833 5.5-7.833 12.833-12 22-4 9.167-7.25 18.833-9.75 29-1.833 7.833-4 13.167-6.5 16-2.333 2.667-6.083 4-11.25 4Zm137.024 0c-10.334 0-18.584-3.75-24.75-11.25-6.167-7.5-9.25-17.333-9.25-29.5 0-13.333 3.083-25.917 9.25-37.75 6.166-12 14.333-21.583 24.5-28.75 10.333-7.333 21.25-11 32.75-11 3.666 0 6.083.75 7.25 2.25 1.333 1.333 2.416 3.833 3.25 7.5 3.5-.667 7.166-1 11-1 8.166 0 12.25 2.917 12.25 8.75 0 3.5-1.25 11.833-3.75 25-3.834 19.167-5.75 32.5-5.75 40 0 2.5.583 4.5 1.75 6 1.333 1.5 3 2.25 5 2.25 3.166 0 7-2 11.5-6 4.5-4.167 10.583-10.833 18.25-20 2-2.333 4.25-3.5 6.75-3.5 2.166 0 3.833 1 5 3 1.333 2 2 4.75 2 8.25 0 6.667-1.584 11.833-4.75 15.5-6.834 8.5-14.084 15.667-21.75 21.5-7.667 5.833-15.084 8.75-22.25 8.75-5.5 0-10.584-1.833-15.25-5.5-4.5-3.833-7.917-9-10.25-15.5-8.667 14-19.584 21-32.75 21Zm9-25.25c3.666 0 7.166-2.167 10.5-6.5 3.333-4.333 5.75-10.083 7.25-17.25l9.25-46c-7 .167-13.5 2.833-19.5 8-5.834 5-10.5 11.667-14 20s-5.25 17.167-5.25 26.5c0 5.167 1 9 3 11.5 2.166 2.5 5.083 3.75 8.75 3.75Zm95.431 25.25c-6.333 0-10.833-3.333-13.5-10-2.5-6.667-3.75-17.333-3.75-32 0-21.667 3.084-42.25 9.25-61.75 1.5-4.833 3.917-8.333 7.25-10.5 3.5-2.333 8.334-3.5 14.5-3.5 3.334 0 5.667.417 7 1.25 1.334.833 2 2.417 2 4.75 0 2.667-1.25 8.667-3.75 18-1.666 6.667-3 12.5-4 17.5s-1.833 11.167-2.5 18.5c5.5-14.333 11.667-26 18.5-35 6.834-9 13.5-15.417 20-19.25 6.667-3.833 12.75-5.75 18.25-5.75 10.834 0 16.25 5.417 16.25 16.25 0 6.5-1.833 18.25-5.5 35.25-3.166 14.5-4.75 24.083-4.75 28.75 0 6.667 2.417 10 7.25 10 3.334 0 7.25-2 11.75-6 4.667-4.167 10.834-10.833 18.5-20 2-2.333 4.25-3.5 6.75-3.5 2.167 0 3.834 1 5 3 1.334 2 2 4.75 2 8.25 0 6.667-1.583 11.833-4.75 15.5-7.166 8.833-14.916 16.083-23.25 21.75-8.166 5.667-17.5 8.5-28 8.5-8.5 0-14.916-2.417-19.25-7.25-4.333-5-6.5-12.167-6.5-21.5 0-4.667 1.167-13 3.5-25 2.167-10.5 3.25-17.75 3.25-21.75 0-2.667-.916-4-2.75-4-2.166 0-5.25 2.833-9.25 8.5-3.833 5.5-7.833 12.833-12 22-4 9.167-7.25 18.833-9.75 29-1.833 7.833-4 13.167-6.5 16-2.333 2.667-6.083 4-11.25 4Zm217.774-57c2.166 0 3.833 1 5 3 1.333 2 2 4.75 2 8.25 0 6.667-1.584 11.833-4.75 15.5-7.167 8.833-15 16.083-23.5 21.75-8.5 5.667-18.25 8.5-29.25 8.5-34 0-51-23.917-51-71.75 0-7.333.25-14.75.75-22.25h-9.75c-5 0-8.417-.917-10.25-2.75-1.667-1.833-2.5-4.75-2.5-8.75 0-9.333 3.75-14 11.25-14h14.25c2.833-18.333 7.166-35.083 13-50.25 5.833-15.167 12.833-27.25 21-36.25 8.333-9 17.25-13.5 26.75-13.5 7 0 12.5 3.083 16.5 9.25s6 13.917 6 23.25c0 25.833-10.834 48.333-32.5 67.5h28c2.666 0 4.583.583 5.75 1.75 1.166 1.167 1.75 3.333 1.75 6.5 0 11.5-9.417 17.25-28.25 17.25h-30.5c-.334 8.333-.5 14.833-.5 19.5 0 17.333 2 29.5 6 36.5 4.166 7 10.666 10.5 19.5 10.5 7.166 0 13.5-2.167 19-6.5s12-10.833 19.5-19.5c2-2.333 4.25-3.5 6.75-3.5Zm-43.75-138.5c-2.5 0-5.334 3.167-8.5 9.5-3 6.167-5.917 14.833-8.75 26-2.667 11-4.917 23.25-6.75 36.75 9.833-8.5 17.166-18 22-28.5 5-10.667 7.5-20.333 7.5-29 0-9.833-1.834-14.75-5.5-14.75ZM807.863 228c-7 0-12.25-1.583-15.75-4.75-3.5-3.333-5.25-7.917-5.25-13.75s2.25-10.667 6.75-14.5c4.667-4 10.417-6 17.25-6 6.167 0 11.167 1.5 15 4.5 3.834 3 5.75 7.25 5.75 12.75 0 6.667-2.166 12-6.5 16-4.333 3.833-10.083 5.75-17.25 5.75Zm-24 134.25c-5.333 0-9-1.083-11-3.25s-3-5.583-3-10.25c0-1.333.167-3.667.5-7 2.667-30.5 7.084-58.25 13.25-83.25 1.334-5.167 3.5-8.75 6.5-10.75 3.167-2.167 8.167-3.25 15-3.25 7.167 0 10.75 2.917 10.75 8.75 0 .833-.166 2.417-.5 4.75-7.5 35.667-12 65.583-13.5 89.75-.333 5.333-1.916 9.083-4.75 11.25-2.833 2.167-7.25 3.25-13.25 3.25Z" fill="#263C24"/></svg>