<svg width="832" height="442" viewBox="0 0 832 442" fill="none" xmlns="http://www.w3.org/2000/svg">
<path d="M200.613 254.8C200.346 255.6 199.813 256.667 199.013 258C198.479 259.333 197.813 260.8 197.013 262.4C196.213 263.733 195.413 264.933 194.613 266C193.813 266.8 193.279 267.067 193.013 266.8C193.013 266.8 193.146 266.133 193.413 264.8C193.679 263.467 193.946 262 194.213 260.4C194.746 258.8 195.146 257.333 195.413 256C195.946 254.4 196.213 253.333 196.213 252.8C200.213 231.467 200.213 213.067 196.213 197.6C192.213 182.133 185.413 169.467 175.813 159.6C166.479 149.733 154.879 142.4 141.013 137.6C127.413 132.8 113.013 130.267 97.8125 130C86.8792 130 76.0792 130.933 65.4125 132.8C55.0125 134.4 45.4125 136.533 36.6125 139.2C28.0792 141.867 20.7458 144.8 14.6125 148C8.74583 151.2 5.0125 154.267 3.4125 157.2C1.54583 160.4 1.0125 160 1.8125 156C3.94583 149.067 9.54583 142.667 18.6125 136.8C27.9458 130.933 38.7458 126.133 51.0125 122.4C63.2792 118.667 76.0792 116.267 89.4125 115.2C103.013 113.867 115.279 114.533 126.213 117.2C133.413 118.8 140.613 121.067 147.813 124C155.013 126.933 161.813 130.533 168.213 134.8C174.879 138.8 180.879 143.733 186.213 149.6C191.813 155.2 196.479 161.733 200.213 169.2C207.413 183.6 210.879 198.533 210.613 214C210.613 229.2 207.279 242.8 200.613 254.8ZM226.613 252C221.546 266.933 214.746 280.4 206.213 292.4C197.946 304.4 189.013 315.2 179.413 324.8C169.813 334.133 159.946 342.267 149.813 349.2C139.679 356.133 130.213 362 121.413 366.8C118.746 368.133 116.479 369.2 114.613 370C112.746 370.8 111.813 370.933 111.813 370.4C111.279 370.133 111.946 369.333 113.813 368C115.946 366.4 118.079 364.8 120.213 363.2C135.146 351.2 149.546 338.533 163.413 325.2C177.546 311.867 190.213 296.667 201.413 279.6C207.013 270.8 211.279 261.2 214.213 250.8C217.146 240.133 218.613 229.2 218.613 218C218.613 206.8 217.013 195.733 213.813 184.8C210.879 173.867 206.213 163.733 199.813 154.4C191.279 142.133 180.879 132.4 168.613 125.2C156.613 118 143.679 113.067 129.813 110.4C115.946 107.467 101.679 106.533 87.0125 107.6C72.3458 108.667 58.2125 111.2 44.6125 115.2C42.4792 115.733 41.1458 116.133 40.6125 116.4C40.3458 116.667 40.0792 116.533 39.8125 116C39.5458 115.467 39.9458 114.933 41.0125 114.4C42.0792 113.867 43.0125 113.333 43.8125 112.8C49.6792 109.6 57.2792 106.667 66.6125 104C75.9458 101.333 86.4792 99.7333 98.2125 99.2C109.946 98.6667 122.479 99.7333 135.813 102.4C149.146 104.8 162.613 109.6 176.213 116.8C190.879 124.8 202.213 134.933 210.213 147.2C218.479 159.467 224.213 172.133 227.413 185.2C230.613 198 231.946 210.533 231.413 222.8C230.879 234.8 229.279 244.533 226.613 252ZM52.6125 389.2C51.2792 387.067 49.5458 383.733 47.4125 379.2C45.5458 374.4 44.0792 368.8 43.0125 362.4C42.4792 359.2 42.0792 355.6 41.8125 351.6C41.8125 347.6 41.9458 343.867 42.2125 340.4C42.4792 336.667 42.8792 333.6 43.4125 331.2C43.9458 328.8 44.7458 327.6 45.8125 327.6C46.0792 327.6 46.3458 328.4 46.6125 330C47.1458 331.333 47.5458 332.933 47.8125 334.8C48.3458 336.667 48.6125 338.533 48.6125 340.4C48.8792 342 49.0125 343.2 49.0125 344C49.5458 350.933 50.3458 357.867 51.4125 364.8C52.7458 371.733 54.6125 378.4 57.0125 384.8C66.3458 373.333 77.0125 361.733 89.0125 350C101.013 338.267 112.746 326.4 124.213 314.4C135.679 302.133 146.079 289.6 155.413 276.8C165.013 264 171.946 250.8 176.213 237.2C179.146 227.867 179.679 218.133 177.813 208C176.213 197.867 172.879 188.667 167.813 180.4C162.746 172.4 155.546 165.733 146.213 160.4C136.879 155.067 126.613 151.333 115.413 149.2C110.879 148.4 106.346 147.733 101.812 147.2C97.5458 146.667 93.0125 146.4 88.2125 146.4C89.0125 150.4 89.4125 154.8 89.4125 159.6C89.6792 164.133 89.6792 168.667 89.4125 173.2C89.1458 177.733 88.7458 182.133 88.2125 186.4C87.6792 190.4 87.0125 194 86.2125 197.2C82.4792 211.6 78.0792 226.133 73.0125 240.8C67.9458 255.2 62.6125 269.067 57.0125 282.4C56.4792 283.2 55.6792 284.533 54.6125 286.4C53.8125 288 53.1458 288.8 52.6125 288.8C52.0792 288.8 51.8125 287.733 51.8125 285.6C51.8125 283.467 51.9458 282 52.2125 281.2C52.4792 278 53.0125 274.133 53.8125 269.6C54.6125 264.8 55.4125 260 56.2125 255.2C57.2792 250.4 58.3458 245.733 59.4125 241.2C60.4792 236.4 61.5458 232.4 62.6125 229.2C63.1458 227.6 64.0792 223.733 65.4125 217.6C67.0125 211.467 68.6125 204.4 70.2125 196.4C71.8125 188.4 73.2792 180 74.6125 171.2C76.2125 162.133 77.2792 153.867 77.8125 146.4H73.0125C72.4792 156.8 71.0125 167.467 68.6125 178.4C66.2125 189.333 63.2792 200.4 59.8125 211.6C56.6125 222.533 53.1458 233.6 49.4125 244.8C45.9458 256 42.8792 267.2 40.2125 278.4C39.6792 280.8 38.8792 284.933 37.8125 290.8C37.0125 296.667 36.3458 303.333 35.8125 310.8C35.2792 318 35.0125 325.733 35.0125 334C35.0125 342 35.5458 349.733 36.6125 357.2C37.9458 364.4 39.8125 370.933 42.2125 376.8C44.6125 382.667 48.0792 386.8 52.6125 389.2ZM185.413 248.8C179.546 262.667 171.413 276 161.013 288.8C150.879 301.6 139.813 314 127.813 326C115.813 337.733 103.413 348.933 90.6125 359.6C78.0792 370.267 66.6125 380.4 56.2125 390C54.0792 391.867 51.2792 392.133 47.8125 390.8C44.6125 389.2 42.2125 387.333 40.6125 385.2C35.0125 377.733 30.8792 369.333 28.2125 360C25.5458 350.667 23.9458 341.067 23.4125 331.2C22.8792 321.067 23.1458 310.933 24.2125 300.8C25.5458 290.4 27.4125 280.4 29.8125 270.8C35.1458 248.667 41.1458 227.333 47.8125 206.8C54.7458 186 59.8125 166.267 63.0125 147.6C48.6125 149.2 35.6792 152.533 24.2125 157.6C13.0125 162.4 5.54583 168.267 1.8125 175.2C1.8125 175.733 1.67917 176 1.4125 176C0.879167 176 0.879167 174.933 1.4125 172.8C3.54583 165.333 8.74583 158.933 17.0125 153.6C25.2792 148 35.1458 143.733 46.6125 140.8C58.0792 137.6 70.3458 135.733 83.4125 135.2C96.7458 134.667 109.679 135.467 122.213 137.6C135.813 140 147.546 145.2 157.413 153.2C167.546 160.933 175.413 170.133 181.013 180.8C186.879 191.2 190.213 202.4 191.013 214.4C192.079 226.4 190.213 237.867 185.413 248.8ZM99.4125 158C102.613 164.933 103.813 174 103.013 185.2C102.479 196.4 101.013 208.133 98.6125 220.4C96.2125 232.4 93.4125 244 90.2125 255.2C87.2792 266.4 85.0125 275.467 83.4125 282.4C80.2125 295.2 76.3458 308 71.8125 320.8C67.2792 333.6 63.5458 344.8 60.6125 354.4C59.2792 358.133 58.3458 360 57.8125 360C57.0125 360 56.6125 359.333 56.6125 358C56.6125 356.4 56.6125 354.933 56.6125 353.6C57.4125 333.867 60.2125 314.4 65.0125 295.2C70.0792 276 75.5458 256.533 81.4125 236.8C84.8792 224.8 88.2125 212.267 91.4125 199.2C94.6125 186.133 96.4792 172.4 97.0125 158C97.0125 156.133 97.2792 155.067 97.8125 154.8C98.0792 154.8 98.3458 155.2 98.6125 156C98.8792 156.8 99.1458 157.467 99.4125 158ZM147.013 324C147.279 324.267 146.746 325.333 145.413 327.2C144.079 329.067 142.346 331.2 140.213 333.6C138.346 335.733 136.346 338 134.213 340.4C132.346 342.533 131.013 344 130.213 344.8C124.613 350.4 118.879 356.133 113.013 362C107.413 367.6 101.546 372.4 95.4125 376.4L59.4125 399.2C58.8792 399.467 58.0792 399.733 57.0125 400C56.2125 400.267 55.5458 400.267 55.0125 400C54.4792 399.733 54.2125 399.333 54.2125 398.8C54.4792 398.267 54.7458 397.733 55.0125 397.2C55.2792 396.667 55.6792 396.133 56.2125 395.6C60.7458 392.4 65.8125 388.4 71.4125 383.6C77.2792 378.8 83.2792 373.867 89.4125 368.8C93.9458 365.333 99.2792 360.933 105.413 355.6C111.813 350.267 117.946 345.2 123.813 340.4C129.946 335.6 135.146 331.6 139.413 328.4C143.946 324.933 146.479 323.467 147.013 324Z" fill="white"/>
<path d="M280.967 228C273.967 228 268.717 226.417 265.217 223.25C261.717 219.917 259.967 215.333 259.967 209.5C259.967 203.667 262.217 198.833 266.717 195C271.383 191 277.133 189 283.967 189C290.133 189 295.133 190.5 298.967 193.5C302.8 196.5 304.717 200.75 304.717 206.25C304.717 212.917 302.55 218.25 298.217 222.25C293.883 226.083 288.133 228 280.967 228ZM278.967 362.25C268.133 362.25 260.217 358.417 255.217 350.75C250.383 343.083 247.967 332.917 247.967 320.25C247.967 312.75 248.883 303.167 250.717 291.5C252.717 279.667 255.217 268.667 258.217 258.5C259.717 253.167 261.717 249.5 264.217 247.5C266.717 245.5 270.717 244.5 276.217 244.5C284.717 244.5 288.967 247.333 288.967 253C288.967 257.167 287.383 266.833 284.217 282C280.217 300.333 278.217 312.75 278.217 319.25C278.217 324.25 278.883 328.083 280.217 330.75C281.55 333.417 283.8 334.75 286.967 334.75C289.967 334.75 293.717 332.667 298.217 328.5C302.717 324.333 308.717 317.75 316.217 308.75C318.217 306.417 320.467 305.25 322.967 305.25C325.133 305.25 326.8 306.25 327.967 308.25C329.3 310.25 329.967 313 329.967 316.5C329.967 323.167 328.383 328.333 325.217 332C308.717 352.167 293.3 362.25 278.967 362.25ZM327.49 362.25C321.157 362.25 316.657 358.917 313.99 352.25C311.49 345.583 310.24 334.917 310.24 320.25C310.24 298.583 313.324 278 319.49 258.5C320.99 253.667 323.407 250.167 326.74 248C330.24 245.667 335.074 244.5 341.24 244.5C344.574 244.5 346.907 244.917 348.24 245.75C349.574 246.583 350.24 248.167 350.24 250.5C350.24 253.167 348.99 259.167 346.49 268.5C344.824 275.167 343.49 281 342.49 286C341.49 291 340.657 297.167 339.99 304.5C345.49 290.167 351.657 278.5 358.49 269.5C365.324 260.5 371.99 254.083 378.49 250.25C385.157 246.417 391.24 244.5 396.74 244.5C407.574 244.5 412.99 249.917 412.99 260.75C412.99 267.25 411.157 279 407.49 296C404.324 310.5 402.74 320.083 402.74 324.75C402.74 331.417 405.157 334.75 409.99 334.75C413.324 334.75 417.24 332.75 421.74 328.75C426.407 324.583 432.574 317.917 440.24 308.75C442.24 306.417 444.49 305.25 446.99 305.25C449.157 305.25 450.824 306.25 451.99 308.25C453.324 310.25 453.99 313 453.99 316.5C453.99 323.167 452.407 328.333 449.24 332C442.074 340.833 434.324 348.083 425.99 353.75C417.824 359.417 408.49 362.25 397.99 362.25C389.49 362.25 383.074 359.833 378.74 355C374.407 350 372.24 342.833 372.24 333.5C372.24 328.833 373.407 320.5 375.74 308.5C377.907 298 378.99 290.75 378.99 286.75C378.99 284.083 378.074 282.75 376.24 282.75C374.074 282.75 370.99 285.583 366.99 291.25C363.157 296.75 359.157 304.083 354.99 313.25C350.99 322.417 347.74 332.083 345.24 342.25C343.407 350.083 341.24 355.417 338.74 358.25C336.407 360.917 332.657 362.25 327.49 362.25ZM464.514 362.25C454.18 362.25 445.93 358.5 439.764 351C433.597 343.5 430.514 333.667 430.514 321.5C430.514 308.167 433.597 295.583 439.764 283.75C445.93 271.75 454.097 262.167 464.264 255C474.597 247.667 485.514 244 497.014 244C500.68 244 503.097 244.75 504.264 246.25C505.597 247.583 506.68 250.083 507.514 253.75C511.014 253.083 514.68 252.75 518.514 252.75C526.68 252.75 530.764 255.667 530.764 261.5C530.764 265 529.514 273.333 527.014 286.5C523.18 305.667 521.264 319 521.264 326.5C521.264 329 521.847 331 523.014 332.5C524.347 334 526.014 334.75 528.014 334.75C531.18 334.75 535.014 332.75 539.514 328.75C544.014 324.583 550.097 317.917 557.764 308.75C559.764 306.417 562.014 305.25 564.514 305.25C566.68 305.25 568.347 306.25 569.514 308.25C570.847 310.25 571.514 313 571.514 316.5C571.514 323.167 569.93 328.333 566.764 332C559.93 340.5 552.68 347.667 545.014 353.5C537.347 359.333 529.93 362.25 522.764 362.25C517.264 362.25 512.18 360.417 507.514 356.75C503.014 352.917 499.597 347.75 497.264 341.25C488.597 355.25 477.68 362.25 464.514 362.25ZM473.514 337C477.18 337 480.68 334.833 484.014 330.5C487.347 326.167 489.764 320.417 491.264 313.25L500.514 267.25C493.514 267.417 487.014 270.083 481.014 275.25C475.18 280.25 470.514 286.917 467.014 295.25C463.514 303.583 461.764 312.417 461.764 321.75C461.764 326.917 462.764 330.75 464.764 333.25C466.93 335.75 469.847 337 473.514 337ZM568.945 362.25C562.612 362.25 558.112 358.917 555.445 352.25C552.945 345.583 551.695 334.917 551.695 320.25C551.695 298.583 554.779 278 560.945 258.5C562.445 253.667 564.862 250.167 568.195 248C571.695 245.667 576.529 244.5 582.695 244.5C586.029 244.5 588.362 244.917 589.695 245.75C591.029 246.583 591.695 248.167 591.695 250.5C591.695 253.167 590.445 259.167 587.945 268.5C586.279 275.167 584.945 281 583.945 286C582.945 291 582.112 297.167 581.445 304.5C586.945 290.167 593.112 278.5 599.945 269.5C606.779 260.5 613.445 254.083 619.945 250.25C626.612 246.417 632.695 244.5 638.195 244.5C649.029 244.5 654.445 249.917 654.445 260.75C654.445 267.25 652.612 279 648.945 296C645.779 310.5 644.195 320.083 644.195 324.75C644.195 331.417 646.612 334.75 651.445 334.75C654.779 334.75 658.695 332.75 663.195 328.75C667.862 324.583 674.029 317.917 681.695 308.75C683.695 306.417 685.945 305.25 688.445 305.25C690.612 305.25 692.279 306.25 693.445 308.25C694.779 310.25 695.445 313 695.445 316.5C695.445 323.167 693.862 328.333 690.695 332C683.529 340.833 675.779 348.083 667.445 353.75C659.279 359.417 649.945 362.25 639.445 362.25C630.945 362.25 624.529 359.833 620.195 355C615.862 350 613.695 342.833 613.695 333.5C613.695 328.833 614.862 320.5 617.195 308.5C619.362 298 620.445 290.75 620.445 286.75C620.445 284.083 619.529 282.75 617.695 282.75C615.529 282.75 612.445 285.583 608.445 291.25C604.612 296.75 600.612 304.083 596.445 313.25C592.445 322.417 589.195 332.083 586.695 342.25C584.862 350.083 582.695 355.417 580.195 358.25C577.862 360.917 574.112 362.25 568.945 362.25ZM786.719 305.25C788.885 305.25 790.552 306.25 791.719 308.25C793.052 310.25 793.719 313 793.719 316.5C793.719 323.167 792.135 328.333 788.969 332C781.802 340.833 773.969 348.083 765.469 353.75C756.969 359.417 747.219 362.25 736.219 362.25C702.219 362.25 685.219 338.333 685.219 290.5C685.219 283.167 685.469 275.75 685.969 268.25H676.219C671.219 268.25 667.802 267.333 665.969 265.5C664.302 263.667 663.469 260.75 663.469 256.75C663.469 247.417 667.219 242.75 674.719 242.75H688.969C691.802 224.417 696.135 207.667 701.969 192.5C707.802 177.333 714.802 165.25 722.969 156.25C731.302 147.25 740.219 142.75 749.719 142.75C756.719 142.75 762.219 145.833 766.219 152C770.219 158.167 772.219 165.917 772.219 175.25C772.219 201.083 761.385 223.583 739.719 242.75H767.719C770.385 242.75 772.302 243.333 773.469 244.5C774.635 245.667 775.219 247.833 775.219 251C775.219 262.5 765.802 268.25 746.969 268.25H716.469C716.135 276.583 715.969 283.083 715.969 287.75C715.969 305.083 717.969 317.25 721.969 324.25C726.135 331.25 732.635 334.75 741.469 334.75C748.635 334.75 754.969 332.583 760.469 328.25C765.969 323.917 772.469 317.417 779.969 308.75C781.969 306.417 784.219 305.25 786.719 305.25ZM742.969 166.75C740.469 166.75 737.635 169.917 734.469 176.25C731.469 182.417 728.552 191.083 725.719 202.25C723.052 213.25 720.802 225.5 718.969 239C728.802 230.5 736.135 221 740.969 210.5C745.969 199.833 748.469 190.167 748.469 181.5C748.469 171.667 746.635 166.75 742.969 166.75ZM807.863 228C800.863 228 795.613 226.417 792.113 223.25C788.613 219.917 786.863 215.333 786.863 209.5C786.863 203.667 789.113 198.833 793.613 195C798.28 191 804.03 189 810.863 189C817.03 189 822.03 190.5 825.863 193.5C829.697 196.5 831.613 200.75 831.613 206.25C831.613 212.917 829.447 218.25 825.113 222.25C820.78 226.083 815.03 228 807.863 228ZM783.863 362.25C778.53 362.25 774.863 361.167 772.863 359C770.863 356.833 769.863 353.417 769.863 348.75C769.863 347.417 770.03 345.083 770.363 341.75C773.03 311.25 777.447 283.5 783.613 258.5C784.947 253.333 787.113 249.75 790.113 247.75C793.28 245.583 798.28 244.5 805.113 244.5C812.28 244.5 815.863 247.417 815.863 253.25C815.863 254.083 815.697 255.667 815.363 258C807.863 293.667 803.363 323.583 801.863 347.75C801.53 353.083 799.947 356.833 797.113 359C794.28 361.167 789.863 362.25 783.863 362.25Z" fill="white"/>
</svg>
